<svg xmlns="http://www.w3.org/2000/svg" fill="#56f1a0" height="100" width="100" viewBox="0 0 174 60">
    <path d="M44.3917137,0 L0,0 L8.44067797,9.75944811 L44.3917137,9.75944811 C60.3352166,9.75944811 73.2567483,22.7024595 73.2567483,38.6202759 L73.2567483,75.7270546 L83,87 L83,38.6724655 C83,17.3791242 65.7018205,0 44.3917137,0 Z"></path>
    <path d="M44.6445396,19 L16,19 L24.5513919,28.7116022 L44.6970021,28.7116022 C50.4678801,28.7116022 55.1895075,33.3856354 55.1895075,39.0983425 L55.1895075,54.7823204 L65,66 L65,39.0983425 C64.9475375,27.9845304 55.8190578,19 44.6445396,19 Z"></path>
    <path d="M129.608286,1 C108.29818,1 91,18.3165468 91,39.6492806 L91,88 L100.743252,76.7338129 L100.743252,39.6492806 C100.743252,23.7410072 113.664783,10.8057554 129.608286,10.8057554 L165.559322,10.8057554 L174,1.05215827 L129.608286,1.05215827 L129.608286,1 Z"></path>
    <path d="M110,39.0983425 L110,66 L119.810493,54.7823204 L119.810493,39.0983425 C119.810493,33.3856354 124.53212,28.7116022 130.302998,28.7116022 L150.448608,28.7116022 L159,19 L130.302998,19 C119.12848,19 110,27.9845304 110,39.0983425 Z"></path>
</svg>